<?xml version="1.0" encoding="UTF-8" standalone="no"?>
<!-- Created with Inkscape (http://www.inkscape.org/) -->

<svg
   width="900"
   height="900"
   viewBox="0 0 238.125 238.125"
   version="1.1"
   id="svg8"
   inkscape:version="1.2.1 (9c6d41e410, 2022-07-14)"
   sodipodi:docname="PsyDoom Icon - Complex.svg"
   inkscape:export-filename="C:\GIT\PsyDoom_Private\game\Resources\Generic\icon_1024.png"
   inkscape:export-xdpi="109.23"
   inkscape:export-ydpi="109.23"
   xmlns:inkscape="http://www.inkscape.org/namespaces/inkscape"
   xmlns:sodipodi="http://sodipodi.sourceforge.net/DTD/sodipodi-0.dtd"
   xmlns:xlink="http://www.w3.org/1999/xlink"
   xmlns="http://www.w3.org/2000/svg"
   xmlns:svg="http://www.w3.org/2000/svg"
   xmlns:rdf="http://www.w3.org/1999/02/22-rdf-syntax-ns#"
   xmlns:cc="http://creativecommons.org/ns#"
   xmlns:dc="http://purl.org/dc/elements/1.1/">
  <defs
     id="defs2">
    <linearGradient
       inkscape:collect="always"
       id="linearGradient82725">
      <stop
         style="stop-color:#875dd8;stop-opacity:1"
         offset="0"
         id="stop82721" />
      <stop
         style="stop-color:#f4f1f8;stop-opacity:1"
         offset="1"
         id="stop82723" />
    </linearGradient>
    <linearGradient
       inkscape:collect="always"
       id="linearGradient22482">
      <stop
         style="stop-color:#f47a9f;stop-opacity:1;"
         offset="0"
         id="stop22478" />
      <stop
         style="stop-color:#dcdcdc;stop-opacity:1"
         offset="1"
         id="stop22480" />
    </linearGradient>
    <linearGradient
       inkscape:collect="always"
       id="linearGradient20871">
      <stop
         style="stop-color:#93a9c8;stop-opacity:1"
         offset="0"
         id="stop20863" />
      <stop
         style="stop-color:#000000;stop-opacity:1"
         offset="0.86434865"
         id="stop20865" />
      <stop
         style="stop-color:#000000;stop-opacity:1"
         offset="1"
         id="stop20867" />
      <stop
         style="stop-color:#ccd6e5;stop-opacity:1"
         offset="1"
         id="stop20869" />
    </linearGradient>
    <linearGradient
       inkscape:collect="always"
       id="linearGradient862">
      <stop
         style="stop-color:#000000;stop-opacity:1;"
         offset="0"
         id="stop858" />
      <stop
         style="stop-color:#000000;stop-opacity:0;"
         offset="1"
         id="stop860" />
    </linearGradient>
    <linearGradient
       inkscape:collect="always"
       xlink:href="#linearGradient862"
       id="linearGradient864"
       x1="47.120083"
       y1="123.86882"
       x2="257.6102"
       y2="123.86882"
       gradientUnits="userSpaceOnUse" />
    <radialGradient
       inkscape:collect="always"
       xlink:href="#linearGradient82725"
       id="radialGradient82591-0"
       cx="293.49774"
       cy="127.10513"
       fx="293.49774"
       fy="127.10513"
       r="37.249321"
       gradientTransform="matrix(-1.7618236,3.0965813,-2.3791103,-1.3536128,1112.9861,-609.68336)"
       gradientUnits="userSpaceOnUse" />
    <radialGradient
       inkscape:collect="always"
       xlink:href="#linearGradient82725"
       id="radialGradient82591-6"
       cx="293.49774"
       cy="127.10513"
       fx="293.49774"
       fy="127.10513"
       r="37.249321"
       gradientTransform="matrix(-1.7618236,3.0965813,-2.3791103,-1.3536128,1112.9861,-609.68336)"
       gradientUnits="userSpaceOnUse" />
    <radialGradient
       inkscape:collect="always"
       xlink:href="#linearGradient82725"
       id="radialGradient82591-69"
       cx="293.49774"
       cy="127.10513"
       fx="293.49774"
       fy="127.10513"
       r="37.249321"
       gradientTransform="matrix(-1.7618236,3.0965813,-2.3791103,-1.3536128,1112.9861,-609.68336)"
       gradientUnits="userSpaceOnUse" />
    <radialGradient
       inkscape:collect="always"
       xlink:href="#linearGradient82725"
       id="radialGradient82591-4"
       cx="293.49774"
       cy="127.10513"
       fx="293.49774"
       fy="127.10513"
       r="37.249321"
       gradientTransform="matrix(-1.7281271,3.0373563,-2.3336076,-1.3277237,988.56489,-617.39551)"
       gradientUnits="userSpaceOnUse" />
    <linearGradient
       inkscape:collect="always"
       xlink:href="#linearGradient22482"
       id="linearGradient897"
       gradientUnits="userSpaceOnUse"
       x1="320.57175"
       y1="154.91666"
       x2="320.32202"
       y2="97.062233"
       gradientTransform="matrix(0.98087407,0,0,0.98087407,-103.13419,-19.37291)" />
    <linearGradient
       inkscape:collect="always"
       xlink:href="#linearGradient20871"
       id="linearGradient907"
       gradientUnits="userSpaceOnUse"
       x1="531.42816"
       y1="106.55203"
       x2="531.59473"
       y2="45.95055"
       gradientTransform="matrix(0.98087407,0,0,0.98087407,-103.13419,-19.37291)" />
  </defs>
  <sodipodi:namedview
     id="base"
     pagecolor="#ffffff"
     bordercolor="#666666"
     borderopacity="1.0"
     inkscape:pageopacity="0.0"
     inkscape:pageshadow="2"
     inkscape:zoom="0.90509668"
     inkscape:cx="1071.1563"
     inkscape:cy="277.31844"
     inkscape:document-units="mm"
     inkscape:current-layer="layer1"
     showgrid="false"
     units="px"
     inkscape:window-width="2560"
     inkscape:window-height="1377"
     inkscape:window-x="1912"
     inkscape:window-y="-8"
     inkscape:window-maximized="1"
     inkscape:pagecheckerboard="0"
     width="1000px"
     showguides="false"
     inkscape:showpageshadow="2"
     inkscape:deskcolor="#d1d1d1">
    <inkscape:grid
       type="xygrid"
       id="grid872" />
  </sodipodi:namedview>
  <metadata
     id="metadata5">
    <rdf:RDF>
      <cc:Work
         rdf:about="">
        <dc:format>image/svg+xml</dc:format>
        <dc:type
           rdf:resource="http://purl.org/dc/dcmitype/StillImage" />
      </cc:Work>
    </rdf:RDF>
  </metadata>
  <g
     inkscape:groupmode="layer"
     id="layer1"
     inkscape:label="Layer 1"
     style="display:inline">
    <rect
       style="opacity:1;fill:#151519;fill-opacity:1;stroke:#000000;stroke-width:2.83103;stroke-linejoin:miter;stroke-miterlimit:4;stroke-dasharray:none;stroke-dashoffset:0;stroke-opacity:1;paint-order:normal"
       id="rect4581-1"
       width="235.73212"
       height="235.51408"
       x="1.416292"
       y="1.416388"
       ry="0"
       inkscape:export-filename="C:\GIT\PsyDoom_Private\game\Resources\Generic\icon_16.png"
       inkscape:export-xdpi="1.7066604"
       inkscape:export-ydpi="1.7066604" />
    <g
       aria-label="Psy"
       transform="matrix(0.94575191,0,0,1.0102776,-36.975246,-18.632135)"
       id="text2018"
       style="font-size:63.7994px;line-height:1.25;letter-spacing:0px;word-spacing:0px;fill:#ffffff;stroke:#1db6ab;stroke-width:3.175;stroke-linejoin:round"
       inkscape:export-filename="C:\GIT\PsyDoom_Private\game\Resources\Generic\icon_16.png"
       inkscape:export-xdpi="1.7066604"
       inkscape:export-ydpi="1.7066604">
      <path
         d="m 120.20684,76.252516 q 0,10.4775 -1.27,16.98625 -1.11125,6.50875 -4.1275,10.001254 -2.8575,3.4925 -8.09625,4.7625 -5.08,1.11125 -13.0175,1.11125 H 76.39184 v -9.366254 h 15.39875 q 3.4925,0 5.87375,-0.79375 2.38125,-0.9525 3.65125,-3.4925 1.42875,-2.69875 1.905,-7.3025 0.635,-4.7625 0.635,-12.22375 0,-7.46125 -0.635,-12.22375 -0.47625,-4.7625 -1.905,-7.3025 -1.27,-2.69875 -3.65125,-3.65125 -2.38125,-0.9525 -5.87375,-0.9525 H 69.88309 V 153.56377 H 53.21434 V 42.280016 h 40.48125 q 7.9375,0 13.0175,1.42875 5.23875,1.27 8.09625,5.08 3.01625,3.65125 4.1275,10.31875 1.27,6.6675 1.27,17.145 z"
         style="font-size:158.75px;font-family:Zrnic;-inkscape-font-specification:Zrnic"
         id="path113537" />
      <path
         d="m 190.69155,127.05252 q 0,13.6525 -5.87375,20.16125 -5.715,6.35 -19.685,6.35 h -35.08375 v -9.525 h 31.90875 q 3.33375,0 5.87375,-0.3175 2.69875,-0.3175 4.445,-1.74625 1.905,-1.5875 2.69875,-4.60375 0.9525,-3.01625 0.9525,-8.41375 0,-4.60375 -0.635,-7.3025 -0.47625,-2.8575 -2.2225,-4.28625 -1.5875,-1.5875 -4.7625,-2.06375 -3.01625,-0.47625 -7.9375,-0.47625 h -11.90625 q -5.87375,0 -10.00125,-1.27 -3.96875,-1.42875 -6.50875,-4.28625 -2.54,-3.01625 -3.65125,-7.77875 -1.11125,-4.762504 -1.11125,-11.588754 0,-11.58875 5.3975,-17.93875 5.3975,-6.50875 18.7325,-6.50875 h 30.63875 v 9.525 h -26.67 q -3.33375,0 -5.87375,0.47625 -2.38125,0.3175 -4.1275,1.5875 -1.5875,1.27 -2.54,3.96875 -0.79375,2.69875 -0.79375,7.14375 0,4.445 0.47625,7.14375 0.635,2.69875 2.06375,4.28625 1.42875,1.428754 3.96875,1.905004 2.69875,0.47625 6.82625,0.47625 h 11.1125 q 6.82625,0 11.43,1.27 4.60375,1.11125 7.46125,3.96875 2.8575,2.8575 4.1275,7.77875 1.27,4.7625 1.27,12.065 z"
         style="font-size:158.75px;font-family:Zrnic;-inkscape-font-specification:Zrnic"
         id="path113539" />
    </g>
    <path
       style="fill:#000000;fill-opacity:1;stroke:#85dbd1;stroke-width:3.40476;stroke-linecap:butt;stroke-linejoin:miter;stroke-miterlimit:4;stroke-dasharray:none;stroke-opacity:1"
       d="M 79.005621,161.44072 57.794,118.75463 36.582291,161.44072 Z"
       id="path870"
       inkscape:connector-curvature="0"
       sodipodi:nodetypes="cccc"
       inkscape:export-filename="C:\GIT\PsyDoom_Private\game\Resources\Generic\icon_16.png"
       inkscape:export-xdpi="1.7066604"
       inkscape:export-ydpi="1.7066604" />
    <circle
       style="opacity:1;fill:#000000;fill-opacity:1;stroke:#97befa;stroke-width:3.40476;stroke-linejoin:round;stroke-miterlimit:4;stroke-dasharray:none;stroke-dashoffset:0;stroke-opacity:1;paint-order:normal"
       id="path4577"
       cx="57.917873"
       cy="195.10689"
       r="21.55253"
       inkscape:export-filename="C:\GIT\PsyDoom_Private\game\Resources\Generic\icon_16.png"
       inkscape:export-xdpi="1.7066604"
       inkscape:export-ydpi="1.7066604" />
    <rect
       style="opacity:1;fill:#000000;fill-opacity:1;stroke:#a08bda;stroke-width:3.40476;stroke-linejoin:round;stroke-miterlimit:4;stroke-dasharray:none;stroke-dashoffset:0;stroke-opacity:1;paint-order:normal"
       id="rect4579"
       width="43.048615"
       height="43.048615"
       x="92.530563"
       y="173.8141"
       inkscape:export-filename="C:\GIT\PsyDoom_Private\game\Resources\Generic\icon_16.png"
       inkscape:export-xdpi="1.7066604"
       inkscape:export-ydpi="1.7066604" />
  </g>
  <g
     inkscape:groupmode="layer"
     id="layer3"
     inkscape:label="Layer 2"
     style="display:inline">
    <path
       style="fill:url(#radialGradient82591-4);fill-opacity:1;stroke:#000000;stroke-width:1.03809;stroke-linecap:butt;stroke-linejoin:miter;stroke-miterlimit:4;stroke-dasharray:none;stroke-opacity:1;paint-order:normal"
       d="m 156.53663,177.66133 -5.24316,10.2897 69.60288,-54.52881 -2.75265,-2.75266 0.3277,-98.112538 -12.19034,-9.830915 -57.34434,-0.01923 8.05868,6.63871 z"
       id="path1951-2"
       inkscape:connector-curvature="0"
       sodipodi:nodetypes="ccccccccc" />
    <path
       id="path1919-4"
       style="fill:url(#linearGradient897);fill-opacity:1;stroke:#000000;stroke-width:1.03809;stroke-linecap:butt;stroke-linejoin:bevel;stroke-miterlimit:4;stroke-dasharray:none;stroke-opacity:1"
       d="m 197.41963,82.40941 0.14501,28.00916 c -6.97341,5.59979 -13.94681,11.19959 -20.92021,16.79938 0.1009,-9.45752 0.20179,-18.91503 0.30269,-28.372545 -4.86669,3.677005 -9.73339,7.353995 -14.60008,11.030995 -0.003,20.68584 -0.005,41.37169 -0.008,62.05753 16.88752,-13.1773 33.77502,-26.3546 50.66253,-39.5319 l -0.09,-61.605086 c -5.16402,3.870823 -10.32803,7.741644 -15.49205,11.612466 z"
       sodipodi:nodetypes="ccccccccc" />
    <path
       id="path1931-1"
       style="font-variation-settings:normal;fill:url(#linearGradient907);fill-opacity:1;stroke:#000000;stroke-width:1.03809;stroke-linecap:butt;stroke-linejoin:miter;stroke-miterlimit:4;stroke-dasharray:none;stroke-dashoffset:0;stroke-opacity:1;stop-color:#000000"
       d="m 162.55414,27.946932 0.0122,2.225409 -0.21923,79.704059 14.60005,-11.030995 -0.0173,-54.48449 20.42785,0.0728 0.0619,37.975695 15.49226,-11.555315 0.22415,-36.495412 -8.36999,-6.952329 -43.14698,-0.130272 z"
       sodipodi:nodetypes="cccccccccccc" />
    <path
       style="fill:none;stroke:#000000;stroke-width:1.03809;stroke-linecap:butt;stroke-linejoin:miter;stroke-dasharray:none;stroke-opacity:1"
       d="m 181.13609,48.195739 12.14197,-0.09269 -0.0927,61.173261 -12.14197,9.54674 z"
       id="path1941-5"
       inkscape:connector-curvature="0"
       sodipodi:nodetypes="ccccc" />
    <path
       style="fill:#000000;fill-opacity:1;stroke:#000000;stroke-width:1.03809;stroke-linecap:butt;stroke-linejoin:round;stroke-miterlimit:4;stroke-dasharray:none;stroke-opacity:1"
       d="m 151.29347,187.95103 10.65646,9.74845 71.36881,-54.77787 -12.42239,-9.49939 z"
       id="path1959-1"
       inkscape:connector-curvature="0"
       sodipodi:nodetypes="ccccc" />
    <path
       style="fill:#0a090c;fill-opacity:1;stroke:#000000;stroke-width:1.03809;stroke-linecap:butt;stroke-linejoin:bevel;stroke-dasharray:none;stroke-opacity:1"
       d="m 220.89635,133.42222 -2.75265,-2.75266 0.0671,-4.52426 8.71256,6.81248 6.39538,8.75889 v 1.20494 z"
       id="path1961-1"
       inkscape:connector-curvature="0"
       sodipodi:nodetypes="ccccccc" />
    <path
       style="fill:#000000;fill-opacity:1;stroke:#000000;stroke-width:1.03809;stroke-linecap:butt;stroke-linejoin:miter;stroke-dasharray:none;stroke-opacity:1"
       d="m 218.4714,32.557022 6.5459,5.308692 -0.0867,92.265116 1.58577,1.93144 0.40699,0.89551 -8.71256,-6.81248 0.26061,-93.588278"
       id="path1963-3"
       inkscape:connector-curvature="0"
       sodipodi:nodetypes="ccccccc" />
    <path
       style="fill:#121118;fill-opacity:1;stroke:#000000;stroke-width:1.03809;stroke-linecap:butt;stroke-linejoin:bevel;stroke-dasharray:none;stroke-opacity:1"
       d="m 181.13609,48.195739 12.13539,10.577056 0.007,-10.66975 z"
       id="path1993-8"
       inkscape:connector-curvature="0"
       sodipodi:nodetypes="cccc" />
    <path
       id="path1999-1"
       style="fill:#000000;fill-opacity:1;stroke:#000000;stroke-width:1.03809;stroke-linecap:butt;stroke-linejoin:bevel;stroke-dasharray:none;stroke-opacity:1"
       d="m 181.13609,48.195739 12.13539,10.577056 -0.0861,50.503515 -12.14197,9.54674 z"
       sodipodi:nodetypes="ccccc" />
  </g>
</svg>
