<?xml version="1.0" encoding="UTF-8" standalone="no"?>
<!-- Created with Inkscape (http://www.inkscape.org/) -->

<svg
   width="900"
   height="900"
   viewBox="0 0 238.125 238.125"
   version="1.1"
   id="svg8"
   inkscape:version="1.1.1 (3bf5ae0d25, 2021-09-20)"
   sodipodi:docname="PsyDoom Icon.svg"
   xmlns:inkscape="http://www.inkscape.org/namespaces/inkscape"
   xmlns:sodipodi="http://sodipodi.sourceforge.net/DTD/sodipodi-0.dtd"
   xmlns:xlink="http://www.w3.org/1999/xlink"
   xmlns="http://www.w3.org/2000/svg"
   xmlns:svg="http://www.w3.org/2000/svg"
   xmlns:rdf="http://www.w3.org/1999/02/22-rdf-syntax-ns#"
   xmlns:cc="http://creativecommons.org/ns#"
   xmlns:dc="http://purl.org/dc/elements/1.1/">
  <defs
     id="defs2">
    <linearGradient
       inkscape:collect="always"
       id="linearGradient82725">
      <stop
         style="stop-color:#875dd8;stop-opacity:1"
         offset="0"
         id="stop82721" />
      <stop
         style="stop-color:#f4f1f8;stop-opacity:1"
         offset="1"
         id="stop82723" />
    </linearGradient>
    <linearGradient
       inkscape:collect="always"
       id="linearGradient22482">
      <stop
         style="stop-color:#f47a9f;stop-opacity:1;"
         offset="0"
         id="stop22478" />
      <stop
         style="stop-color:#dcdcdc;stop-opacity:1"
         offset="1"
         id="stop22480" />
    </linearGradient>
    <linearGradient
       inkscape:collect="always"
       id="linearGradient20871">
      <stop
         style="stop-color:#93a9c8;stop-opacity:1"
         offset="0"
         id="stop20863" />
      <stop
         style="stop-color:#000000;stop-opacity:1"
         offset="0.86434865"
         id="stop20865" />
      <stop
         style="stop-color:#000000;stop-opacity:1"
         offset="1"
         id="stop20867" />
      <stop
         style="stop-color:#ccd6e5;stop-opacity:1"
         offset="1"
         id="stop20869" />
    </linearGradient>
    <linearGradient
       inkscape:collect="always"
       id="linearGradient862">
      <stop
         style="stop-color:#000000;stop-opacity:1;"
         offset="0"
         id="stop858" />
      <stop
         style="stop-color:#000000;stop-opacity:0;"
         offset="1"
         id="stop860" />
    </linearGradient>
    <linearGradient
       inkscape:collect="always"
       xlink:href="#linearGradient862"
       id="linearGradient864"
       x1="47.120083"
       y1="123.86882"
       x2="257.6102"
       y2="123.86882"
       gradientUnits="userSpaceOnUse" />
    <radialGradient
       inkscape:collect="always"
       xlink:href="#linearGradient82725"
       id="radialGradient82591"
       cx="293.49774"
       cy="127.10513"
       fx="293.49774"
       fy="127.10513"
       r="37.249321"
       gradientTransform="matrix(-1.7618236,3.0965813,-2.3791103,-1.3536128,1002.3833,-621.3251)"
       gradientUnits="userSpaceOnUse" />
    <radialGradient
       inkscape:collect="always"
       xlink:href="#linearGradient82725"
       id="radialGradient82591-0"
       cx="293.49774"
       cy="127.10513"
       fx="293.49774"
       fy="127.10513"
       r="37.249321"
       gradientTransform="matrix(-1.7618236,3.0965813,-2.3791103,-1.3536128,1112.9861,-609.68336)"
       gradientUnits="userSpaceOnUse" />
    <radialGradient
       inkscape:collect="always"
       xlink:href="#linearGradient82725"
       id="radialGradient82591-6"
       cx="293.49774"
       cy="127.10513"
       fx="293.49774"
       fy="127.10513"
       r="37.249321"
       gradientTransform="matrix(-1.7618236,3.0965813,-2.3791103,-1.3536128,1112.9861,-609.68336)"
       gradientUnits="userSpaceOnUse" />
    <radialGradient
       inkscape:collect="always"
       xlink:href="#linearGradient82725"
       id="radialGradient82591-69"
       cx="293.49774"
       cy="127.10513"
       fx="293.49774"
       fy="127.10513"
       r="37.249321"
       gradientTransform="matrix(-1.7618236,3.0965813,-2.3791103,-1.3536128,1112.9861,-609.68336)"
       gradientUnits="userSpaceOnUse" />
    <linearGradient
       inkscape:collect="always"
       xlink:href="#linearGradient22482"
       id="linearGradient115386"
       gradientUnits="userSpaceOnUse"
       x1="320.57175"
       y1="154.91666"
       x2="320.32202"
       y2="97.062233"
       gradientTransform="translate(-110.59596,-11.641668)" />
    <linearGradient
       inkscape:collect="always"
       xlink:href="#linearGradient20871"
       id="linearGradient115388"
       gradientUnits="userSpaceOnUse"
       x1="531.42816"
       y1="106.55203"
       x2="531.59473"
       y2="45.95055"
       gradientTransform="translate(-110.59596,-11.641668)" />
  </defs>
  <sodipodi:namedview
     id="base"
     pagecolor="#ffffff"
     bordercolor="#666666"
     borderopacity="1.0"
     inkscape:pageopacity="0.0"
     inkscape:pageshadow="2"
     inkscape:zoom="0.90509668"
     inkscape:cx="450.22815"
     inkscape:cy="357.42038"
     inkscape:document-units="mm"
     inkscape:current-layer="svg8"
     showgrid="false"
     units="px"
     inkscape:window-width="2560"
     inkscape:window-height="1377"
     inkscape:window-x="1912"
     inkscape:window-y="-8"
     inkscape:window-maximized="1"
     inkscape:pagecheckerboard="0"
     width="1000px">
    <inkscape:grid
       type="xygrid"
       id="grid872" />
  </sodipodi:namedview>
  <metadata
     id="metadata5">
    <rdf:RDF>
      <cc:Work
         rdf:about="">
        <dc:format>image/svg+xml</dc:format>
        <dc:type
           rdf:resource="http://purl.org/dc/dcmitype/StillImage" />
      </cc:Work>
    </rdf:RDF>
  </metadata>
  <rect
     style="opacity:1;fill:#151519;fill-opacity:1;stroke:#000000;stroke-width:2.82713;stroke-linejoin:miter;stroke-miterlimit:4;stroke-dasharray:none;stroke-dashoffset:0;stroke-opacity:1;paint-order:normal"
     id="rect4581-1"
     width="235.29753"
     height="235.29874"
     x="1.4143399"
     y="1.414436"
     ry="0" />
  <path
     style="fill:url(#radialGradient82591);fill-opacity:1;stroke:#000000;stroke-width:0.529167;stroke-linecap:butt;stroke-linejoin:miter;stroke-miterlimit:4;stroke-dasharray:none;stroke-opacity:1"
     d="m 154.13758,189.23445 -5.34539,10.49033 70.96006,-55.59206 -2.80633,-2.80633 0.33409,-100.025557 -12.42804,-10.022607 -58.46249,-0.01961 8.21582,6.768158 z"
     id="path1951"
     inkscape:connector-curvature="0" />
  <path
     style="fill:url(#linearGradient115386);fill-opacity:1;stroke:#000000;stroke-width:0.529167;stroke-linecap:butt;stroke-linejoin:miter;stroke-miterlimit:4;stroke-dasharray:none;stroke-opacity:1"
     d="m 158.99499,122.25632 17.00893,-12.85118 -0.28349,26.17485 19.1823,-15.40253 -0.18899,-25.513367 17.95386,-13.796096 0.0945,62.743983 -53.76711,41.95536 z"
     id="path1919"
     inkscape:connector-curvature="0" />
  <path
     style="font-variation-settings:normal;opacity:1;fill:url(#linearGradient115388);fill-opacity:1;stroke:#000000;stroke-width:0.529167;stroke-linecap:butt;stroke-linejoin:miter;stroke-miterlimit:4;stroke-dasharray:none;stroke-dashoffset:0;stroke-opacity:1;stop-color:#000000;stop-opacity:1"
     d="m 158.99498,122.25632 0.23624,-85.091819 -3.16555,-2.315104 47.625,0.14174 9.21317,7.65402 -0.23624,38.22284 -17.95386,13.796096 -0.018,-40.200237 -18.70887,-0.06682 0.017,55.008104 z"
     id="path1931"
     inkscape:connector-curvature="0" />
  <path
     style="fill:none;stroke:#000000;stroke-width:0.264583px;stroke-linecap:butt;stroke-linejoin:miter;stroke-opacity:1"
     d="m 175.98687,54.397036 18.70887,0.06682 0.20699,65.713604 -19.1823,15.40253 0.26644,-81.182954"
     id="path1939"
     inkscape:connector-curvature="0" />
  <path
     style="fill:none;stroke:#000000;stroke-width:0.264583px;stroke-linecap:butt;stroke-linejoin:miter;stroke-opacity:1"
     d="m 179.21671,57.244487 12.37872,-0.0945 -0.0945,62.366013 -12.37872,9.73289 z"
     id="path1941"
     inkscape:connector-curvature="0" />
  <path
     style="fill:#000000;fill-opacity:1;stroke:#000000;stroke-width:0.529167;stroke-linecap:butt;stroke-linejoin:miter;stroke-miterlimit:4;stroke-dasharray:none;stroke-opacity:1"
     d="m 148.79219,199.72478 10.86425,9.93854 72.76042,-55.84598 -12.66461,-9.68462 z"
     id="path1959"
     inkscape:connector-curvature="0" />
  <path
     style="fill:#0a090c;fill-opacity:1;stroke:#000000;stroke-width:0.264583px;stroke-linecap:butt;stroke-linejoin:miter;stroke-opacity:1"
     d="m 219.75225,144.13272 -2.80633,-2.80633 0.0684,-4.61248 8.88244,6.94532 6.52009,8.92968 v 1.22843 z"
     id="path1961"
     inkscape:connector-curvature="0" />
  <path
     style="fill:#000000;fill-opacity:1;stroke:#000000;stroke-width:0.264583px;stroke-linecap:butt;stroke-linejoin:miter;stroke-opacity:1"
     d="m 217.28001,41.300833 6.71514,5.412205 -0.13,94.064122 1.61669,1.9691 0.41492,0.91297 -8.88244,-6.94532 0.26569,-95.413077"
     id="path1963"
     inkscape:connector-curvature="0" />
  <path
     style="fill:#121118;fill-opacity:1;stroke:#000000;stroke-width:0.264583px;stroke-linecap:butt;stroke-linejoin:miter;stroke-opacity:1"
     d="m 179.21671,57.244487 12.37201,10.783297 0.007,-10.877798 z"
     id="path1993"
     inkscape:connector-curvature="0" />
  <path
     style="fill:#000000;fill-opacity:1;stroke:#000000;stroke-width:0.264583px;stroke-linecap:butt;stroke-linejoin:miter;stroke-opacity:1"
     d="m 179.21671,57.244487 12.37201,10.783297 -0.0878,51.488216 -12.37872,9.73289 z"
     id="path1999"
     inkscape:connector-curvature="0" />
  <g
     aria-label="Psy"
     transform="matrix(0.9675385,0,0,1.0335506,-40.216686,-11.641668)"
     id="text2018"
     style="font-size:63.7994px;line-height:1.25;letter-spacing:0px;word-spacing:0px;fill:#ffffff;stroke:#1db6ab;stroke-width:3.175;stroke-linejoin:round">
    <path
       d="m 120.20684,76.252516 q 0,10.4775 -1.27,16.98625 -1.11125,6.50875 -4.1275,10.001254 -2.8575,3.4925 -8.09625,4.7625 -5.08,1.11125 -13.0175,1.11125 H 76.39184 v -9.366254 h 15.39875 q 3.4925,0 5.87375,-0.79375 2.38125,-0.9525 3.65125,-3.4925 1.42875,-2.69875 1.905,-7.3025 0.635,-4.7625 0.635,-12.22375 0,-7.46125 -0.635,-12.22375 -0.47625,-4.7625 -1.905,-7.3025 -1.27,-2.69875 -3.65125,-3.65125 -2.38125,-0.9525 -5.87375,-0.9525 H 69.88309 V 153.56377 H 53.21434 V 42.280016 h 40.48125 q 7.9375,0 13.0175,1.42875 5.23875,1.27 8.09625,5.08 3.01625,3.65125 4.1275,10.31875 1.27,6.6675 1.27,17.145 z"
       style="font-size:158.75px;font-family:Zrnic;-inkscape-font-specification:Zrnic"
       id="path113537" />
    <path
       d="m 190.69155,127.05252 q 0,13.6525 -5.87375,20.16125 -5.715,6.35 -19.685,6.35 h -35.08375 v -9.525 h 31.90875 q 3.33375,0 5.87375,-0.3175 2.69875,-0.3175 4.445,-1.74625 1.905,-1.5875 2.69875,-4.60375 0.9525,-3.01625 0.9525,-8.41375 0,-4.60375 -0.635,-7.3025 -0.47625,-2.8575 -2.2225,-4.28625 -1.5875,-1.5875 -4.7625,-2.06375 -3.01625,-0.47625 -7.9375,-0.47625 h -11.90625 q -5.87375,0 -10.00125,-1.27 -3.96875,-1.42875 -6.50875,-4.28625 -2.54,-3.01625 -3.65125,-7.77875 -1.11125,-4.762504 -1.11125,-11.588754 0,-11.58875 5.3975,-17.93875 5.3975,-6.50875 18.7325,-6.50875 h 30.63875 v 9.525 h -26.67 q -3.33375,0 -5.87375,0.47625 -2.38125,0.3175 -4.1275,1.5875 -1.5875,1.27 -2.54,3.96875 -0.79375,2.69875 -0.79375,7.14375 0,4.445 0.47625,7.14375 0.635,2.69875 2.06375,4.28625 1.42875,1.428754 3.96875,1.905004 2.69875,0.47625 6.82625,0.47625 h 11.1125 q 6.82625,0 11.43,1.27 4.60375,1.11125 7.46125,3.96875 2.8575,2.8575 4.1275,7.77875 1.27,4.7625 1.27,12.065 z"
       style="font-size:158.75px;font-family:Zrnic;-inkscape-font-specification:Zrnic"
       id="path113539" />
  </g>
  <path
     style="fill:#000000;fill-opacity:1;stroke:#85dbd1;stroke-width:3;stroke-linecap:butt;stroke-linejoin:miter;stroke-miterlimit:4;stroke-dasharray:none;stroke-opacity:1"
     d="M 74.870524,166.02749 56.180522,128.41588 37.490442,166.02749 Z"
     id="path870"
     inkscape:connector-curvature="0"
     sodipodi:nodetypes="cccc" />
  <circle
     style="opacity:1;fill:#000000;fill-opacity:1;stroke:#97befa;stroke-width:3;stroke-linejoin:round;stroke-miterlimit:4;stroke-dasharray:none;stroke-dashoffset:0;stroke-opacity:1;paint-order:normal"
     id="path4577"
     cx="56.289665"
     cy="191.49504"
     r="18.990385" />
  <rect
     style="opacity:1;fill:#000000;fill-opacity:1;stroke:#a08bda;stroke-width:3;stroke-linejoin:round;stroke-miterlimit:4;stroke-dasharray:none;stroke-dashoffset:0;stroke-opacity:1;paint-order:normal"
     id="rect4579"
     width="37.931034"
     height="37.931034"
     x="86.321365"
     y="172.73351" />
</svg>
